<svg width="189" height="54" viewBox="0 0 189 54" fill="none" xmlns="http://www.w3.org/2000/svg">
<g clip-path="url(#clip0_168_7)">
<rect width="189" height="54" fill="white"/>
<path d="M0 0V19.712H4.53308V4.42093H50.4898V49.5814H19.7788V54H54.9949V0H0Z" fill="#22007F"/>
<path d="M10.6052 49.5791H10.5562C9.75827 49.5977 8.96506 49.4542 8.22637 49.1576C7.48767 48.861 6.81944 48.4177 6.26365 47.8556C5.70415 47.3087 5.26291 46.6565 4.96636 45.9382C4.6698 45.2199 4.52402 44.4502 4.53776 43.6754V24.1444H0V43.6776C0.0245235 46.4126 1.14539 49.028 3.12008 50.9581C5.09477 52.8882 7.76447 53.9777 10.5515 53.9909H15.2224V49.5814H10.6052V49.5791Z" fill="#04DDB3"/>
<path d="M83.6879 37.0268H83.6365C82.8392 37.0453 82.0465 36.9019 81.3083 36.6058C80.5701 36.3096 79.9021 35.867 79.3463 35.3057C78.7868 34.7581 78.3455 34.1055 78.0486 33.3869C77.7517 32.6683 77.6053 31.8984 77.6181 31.1231V11.5922H73.0826V31.1254C73.109 33.8598 74.2304 36.4742 76.2047 38.4039C78.179 40.3336 80.8477 41.4237 83.6341 41.4386H88.3167V37.0291H83.6879V37.0268Z" fill="#22007F"/>
<path d="M103.334 21.3416C100.413 21.3416 97.9356 22.3202 95.9006 24.2774C94.9187 25.19 94.1405 26.2926 93.6151 27.5155C93.0897 28.7384 92.8285 30.055 92.8482 31.382C92.8482 34.3431 93.8454 36.8014 95.8399 38.7571C97.8312 40.7434 100.303 41.7365 103.255 41.7365C106.23 41.7365 108.742 40.7648 110.791 38.8213C112.84 36.8778 113.857 34.4531 113.841 31.5471C113.841 28.6777 112.829 26.2583 110.805 24.2888C108.76 22.3255 106.269 21.3431 103.334 21.3416ZM107.664 35.7526C107.089 36.3051 106.406 36.7391 105.657 37.0287C104.907 37.3184 104.107 37.458 103.302 37.4393C102.504 37.4583 101.711 37.3152 100.973 37.019C100.235 36.7228 99.5669 36.2799 99.0114 35.7182C98.4416 35.1604 97.9941 34.494 97.6964 33.7601C97.3988 33.0262 97.2574 32.2403 97.2809 31.4508C97.2675 30.6806 97.4176 29.9161 97.7215 29.2059C98.0255 28.4957 98.4767 27.8554 99.0465 27.3255C100.207 26.2321 101.753 25.6214 103.361 25.6214C104.97 25.6214 106.516 26.2321 107.676 27.3255C108.807 28.4478 109.44 29.963 109.438 31.5414C109.436 33.1197 108.798 34.6333 107.664 35.7526Z" fill="#22007F"/>
<path d="M189.001 21.9396H183.87L178.253 33.0435L172.232 21.9396H166.959L175.808 37.6638L168.773 50.7616H173.888L189.001 21.9396Z" fill="#22007F"/>
<path d="M129.026 20.7503C126.852 20.749 124.732 21.4062 122.953 22.6319V11.5922H118.418V31.2446C118.435 33.2992 119.072 35.3028 120.248 37.0028C121.424 38.7028 123.087 40.0232 125.026 40.7975C126.966 41.5717 129.095 41.7653 131.147 41.3538C133.198 40.9423 135.08 39.944 136.554 38.4849C138.028 37.0258 139.029 35.1711 139.431 33.1546C139.833 31.1381 139.617 29.0499 138.812 27.1534C138.006 25.2568 136.646 23.6367 134.904 22.4972C133.162 21.3578 131.115 20.7499 129.021 20.7503H129.026ZM133.334 35.4615C132.759 36.0141 132.076 36.448 131.327 36.7377C130.578 37.0274 129.777 37.167 128.972 37.1483C128.174 37.1673 127.382 37.0242 126.643 36.728C125.905 36.4318 125.237 35.9889 124.682 35.4272C124.113 34.8704 123.666 34.2055 123.369 33.4733C123.071 32.7411 122.929 31.9569 122.951 31.1689C122.937 30.3991 123.086 29.6348 123.39 28.9246C123.693 28.2145 124.143 27.5739 124.712 27.0437C125.873 25.9468 127.421 25.334 129.033 25.334C130.644 25.334 132.192 25.9468 133.353 27.0437C134.479 28.1652 135.109 29.6771 135.107 31.2515C135.105 32.826 134.471 34.3361 133.341 35.4547L133.334 35.4615Z" fill="#22007F"/>
<path d="M154.772 20.7503C152.599 20.7487 150.478 21.4059 148.7 22.6319V11.5922H144.162V31.2446C144.18 33.2998 144.816 35.304 145.992 37.0047C147.168 38.7054 148.831 40.0264 150.771 40.8012C152.711 41.576 154.841 41.77 156.893 41.3586C158.945 40.9472 160.827 39.949 162.302 38.4896C163.776 37.0303 164.778 35.1752 165.18 33.1582C165.582 31.1411 165.367 29.0524 164.561 27.1553C163.755 25.2582 162.395 23.6376 160.652 22.4978C158.91 21.358 156.862 20.7499 154.768 20.7503H154.772ZM159.081 35.4615C158.506 36.0141 157.823 36.448 157.074 36.7377C156.324 37.0274 155.524 37.167 154.719 37.1483C153.921 37.1673 153.128 37.0242 152.39 36.728C151.652 36.4318 150.984 35.9889 150.428 35.4272C149.272 34.295 148.695 32.8725 148.698 31.1598C148.685 30.3896 148.835 29.6251 149.139 28.9149C149.443 28.2047 149.894 27.5643 150.463 27.0345C151.624 25.9376 153.173 25.3249 154.784 25.3249C156.395 25.3249 157.944 25.9376 159.105 27.0345C160.231 28.156 160.861 29.6679 160.859 31.2423C160.856 32.8168 160.222 34.3269 159.093 35.4455L159.081 35.4615Z" fill="#22007F"/>
</g>
<defs>
<clipPath id="clip0_168_7">
<rect width="189" height="54" fill="white"/>
</clipPath>
</defs>
</svg>
